<svg xmlns="http://www.w3.org/2000/svg" viewBox="0 0 240 240"><style>.d{stroke-dasharray:236;animation:d 1.1s ease-out .2s both}@keyframes d{from{stroke-dashoffset:236}to{stroke-dashoffset:0}}@keyframes p{0%{transform:scale(0)}70%{transform:scale(1.18)}100%{transform:scale(1)}}@keyframes o{from{opacity:0}to{opacity:1}}@keyframes f{0%,100%{transform:translateY(0)}50%{transform:translateY(-6px)}}.b1{transform-origin:142px 104px;animation:p .5s ease-out 1.3s both}.s1{animation:o .3s ease-out 1.3s both}.f1{animation:f 2.5s ease-in-out 1.9s 3 both}.b2{transform-origin:178px 84px;animation:p .5s ease-out 1.8s both}.s2{animation:o .3s ease-out 1.8s both}.f2{animation:f 2.8s ease-in-out 2.4s 3 both}.b3{transform-origin:212px 106px;animation:p .5s ease-out 2.3s both}.s3{animation:o .3s ease-out 2.3s both}.f3{animation:f 3.1s ease-in-out 2.9s 3 both}.k{animation:o .3s ease-out 2.5s both}@media (prefers-reduced-motion:reduce){*{animation:none!important}}</style><path d="M226.2,122C226.1,136.7 219,153.5 211.2,165.9C203.4,178.3 191,188.1 179.4,196.5C167.8,204.8 155.1,211.9 141.5,216C127.8,220.1 111.7,223.2 97.4,221C83.1,218.8 66.8,212.2 55.4,203C44.1,193.7 34.2,179.1 29.4,165.6C24.7,152.1 26.5,136.3 27,122C27.5,107.7 28.2,93.8 32.5,79.9C36.9,65.9 42.4,48 53.1,38.1C63.8,28.3 82.1,22.6 96.9,20.6C111.6,18.7 128.2,21.8 141.8,26.4C155.5,31 167.2,39.7 178.8,48.3C190.4,56.9 203.5,65.7 211.4,78C219.3,90.3 226.2,107.3 226.2,122Z" fill="#DDEFFF"/><ellipse cx="128" cy="212" rx="78" ry="7" fill="#1B2340" opacity=".08"/><g fill="none" stroke-linecap="round" stroke-linejoin="round"><path class="d" d="M44,86 C52,66 92,64 92,92 C92,110 76,118 64,119 C80,120 98,128 98,148 C98,176 58,180 42,160" stroke="#2156C2" stroke-width="25"/><path class="d" d="M44,86 C52,66 92,64 92,92 C92,110 76,118 64,119 C80,120 98,128 98,148 C98,176 58,180 42,160" stroke="#4A8BF5" stroke-width="16"/></g><g class="f1"><path class="s1" d="M142,131 C140,160 170,172 176,200" fill="none" stroke="#7A8599" stroke-width="2.5" stroke-linecap="round"/><g class="b1"><path d="M138,131 L146,131 L142,125 Z" fill="#FF5A5F" stroke="#D63D42" stroke-width="2.5" stroke-linejoin="round"/><ellipse cx="142" cy="104" rx="19" ry="23" fill="#FF5A5F" stroke="#D63D42" stroke-width="3.5"/><ellipse cx="135" cy="95" rx="4" ry="7" transform="rotate(-20 135 95)" fill="#fff" opacity=".7"/></g></g><g class="f2"><path class="s2" d="M178,111 C174,146 182,170 180,200" fill="none" stroke="#7A8599" stroke-width="2.5" stroke-linecap="round"/><g class="b2"><path d="M174,111 L182,111 L178,105 Z" fill="#FFC83D" stroke="#D9A21E" stroke-width="2.5" stroke-linejoin="round"/><ellipse cx="178" cy="84" rx="19" ry="23" fill="#FFC83D" stroke="#D9A21E" stroke-width="3.5"/><ellipse cx="171" cy="75" rx="4" ry="7" transform="rotate(-20 171 75)" fill="#fff" opacity=".7"/></g></g><g class="f3"><path class="s3" d="M212,133 C208,160 188,176 184,200" fill="none" stroke="#7A8599" stroke-width="2.5" stroke-linecap="round"/><g class="b3"><path d="M208,133 L216,133 L212,127 Z" fill="#4CC38A" stroke="#2E9D68" stroke-width="2.5" stroke-linejoin="round"/><ellipse cx="212" cy="106" rx="19" ry="23" fill="#4CC38A" stroke="#2E9D68" stroke-width="3.5"/><ellipse cx="205" cy="97" rx="4" ry="7" transform="rotate(-20 205 97)" fill="#fff" opacity=".7"/></g></g><circle class="k" cx="180" cy="201" r="4.5" fill="#7A8599"/></svg>